#!OML:ASF X:\für Bonn\!DataBase\2005_08_10_Bjorn_Final\c3d\bjorn.ASF
:FULLY-SPECIFIED
:DEGREES
507
root 0.215267 1.89735 19.1672 -262.698 -9.43789 -530.747
lowerback 44.4508 8.85708 7.95482
upperback 28.4152 1.45745 2.73242
thorax 12.2227 -4.59737 -2.67607
lowerneck 10.3302 13.2331 5.57832
upperneck 11.6865 17.0888 -2.14119
head 2.80561 8.22223 -1.6396
rclavicle -2.60408e-014 6.67916e-014
rhumerus 17.4165 -7.62196 -63.9814
rradius 32.4574
rwrist 11.0928
rhand -5.59194 8.21355
rfingers 7.12502
rthumb 20.2246 -20.7536
lclavicle -2.60408e-014 6.67916e-014
lhumerus 23.5542 -17.0248 67.2588
lradius 37.969
lwrist -9.80414
lhand -33.6376 -376.348
lfingers 7.12502
lthumb -6.8297 13.5219
rfemur -57.6304 -19.3565 -1.12441
rtibia 111.779
rfoot 35.8325 12.6651
rtoes -3.26488
lfemur -69.142 15.9578 -8.85136
ltibia 124.802
lfoot 27.2907 -5.35922
ltoes 5.99915
508
root 0.213957 1.89208 19.1864 -263.072 -9.32977 -530.555
lowerback 44.1296 8.87105 7.92335
upperback 28.3985 1.5586 2.74902
thorax 12.2813 -4.50838 -2.66729
lowerneck 10.4275 13.0869 5.6729
upperneck 11.6537 16.897 -2.10461
head 2.77372 8.12784 -1.65348
rclavicle -2.70347e-014 6.36111e-015
rhumerus 17.6007 -7.89757 -64.4099
rradius 32.209
rwrist 11.3661
rhand -5.12629 8.59851
rfingers 7.12502
rthumb 20.6721 -20.3206
lclavicle -2.70347e-014 6.36111e-015
lhumerus 23.2767 -16.7488 68.0866
lradius 37.7339
lwrist -9.92423
lhand -33.9749 -376.449
lfingers 7.12502
lthumb -7.15535 13.4099
rfemur -56.8179 -18.9757 -0.8999
rtibia 110.886
rfoot 35.9845 12.2342
rtoes -3.46852
lfemur -68.7117 15.674 -8.65628
ltibia 124.644
lfoot 27.2912 -5.28722
ltoes 5.88663
509
root 0.213271 1.88725 19.2056 -263.438 -9.20726 -530.374
lowerback 43.7789 8.90257 7.87383
upperback 28.3932 1.67027 2.76704
thorax 12.3619 -4.41778 -2.65237
lowerneck 10.5165 12.9241 5.89739
upperneck 11.6693 16.6976 -2.17951
head 2.78421 8.03221 -1.71918
rclavicle 3.20043e-014 -3.81667e-014
rhumerus 17.7766 -8.21451 -64.8645
rradius 31.929
rwrist 11.7194
rhand -4.65075 9.04634
rfingers 7.12502
rthumb 21.1289 -19.8224
lclavicle 3.20043e-014 -3.81667e-014
lhumerus 23.0035 -16.4699 68.8567
lradius 37.504
lwrist -10.0774
lhand -34.3201 -376.617
lfingers 7.12502
lthumb -7.48859 13.2306
rfemur -55.9938 -18.5837 -0.635685
rtibia 109.939
rfoot 36.1264 11.8138
rtoes -3.58451
lfemur -68.2802 15.4228 -8.43617
ltibia 124.491
lfoot 27.2621 -5.17218
ltoes 5.88876
510
root 0.211722 1.88132 19.2249 -263.812 -9.08834 -530.18
lowerback 43.4423 8.91713 7.81601
upperback 28.3582 1.77594 2.77995
thorax 12.4004 -4.32471 -2.6316
lowerneck 10.6688 12.7476 6.12759
upperneck 11.6856 16.478 -2.23921
head 2.78183 7.92555 -1.78604
rclavicle 4.29375e-014 -1.59028e-014
rhumerus 17.845 -8.51749 -65.3191
rradius 31.6732
rwrist 12.1106
rhand -4.15464 9.5004
rfingers 7.12502
rthumb 21.6055 -19.3143
lclavicle 4.29375e-014 -1.59028e-014
lhumerus 22.6451 -16.2063 69.6288
lradius 37.3019
lwrist -10.2345
lhand -34.6582 -376.808
lfingers 7.12502
lthumb -7.81486 13.0278
rfemur -55.1484 -18.2089 -0.37549
rtibia 108.944
rfoot 36.242 11.4066
rtoes -3.5542
lfemur -67.8727 15.1481 -8.23381
ltibia 124.34
lfoot 27.2627 -5.09645
ltoes 5.7554
511
root 0.210399 1.87674 19.2439 -264.201 -8.95056 -529.993
lowerback 43.0963 8.93106 7.74035
upperback 28.3172 1.87754 2.79174
thorax 12.4325 -4.23573 -2.60098
lowerneck 10.9412 12.5537 6.39886
upperneck 11.6284 16.2483 -2.37798
head 2.74499 7.81498 -1.89519
rclavicle -5.07895e-014 1.27222e-014
rhumerus 17.8539 -8.72344 -65.7271
rradius 31.4518
rwrist 12.4358
rhand -3.62112 9.89982
rfingers 7.12502
rthumb 22.1178 -18.8551
lclavicle -5.07895e-014 1.27222e-014
lhumerus 22.2371 -15.8678 70.4068
lradius 37.1024
lwrist -10.5003
lhand -34.8486 -377.036
lfingers 7.12502
lthumb -7.99866 12.7926
rfemur -54.274 -17.8435 -0.101468
rtibia 107.915
rfoot 36.3522 10.9581
rtoes -3.45404
lfemur -67.4144 14.877 -8.00469
ltibia 124.181
lfoot 27.24 -5.0303
ltoes 5.64678
512
root 0.20926 1.87146 19.2628 -264.586 -8.81242 -529.803
lowerback 42.7292 8.95363 7.63173
upperback 28.2794 1.9785 2.81862
thorax 12.4714 -4.15378 -2.53719
lowerneck 11.1526 12.3689 6.62852
upperneck 11.6434 16.0195 -2.46429
head 2.73312 7.7021 -1.97522
rclavicle 5.91384e-014 2.8625e-014
rhumerus 17.8766 -8.87124 -66.0919
rradius 31.1784
rwrist 12.751
rhand -3.17492 10.1869
rfingers 7.12502
rthumb 22.5461 -18.5167
lclavicle 5.91384e-014 2.8625e-014
lhumerus 21.807 -15.5376 71.1503
lradius 36.9486
lwrist -10.7041
lhand -34.9725 -377.11
lfingers 7.12502
lthumb -8.11826 12.7143
rfemur -53.3787 -17.4976 0.179804
rtibia 106.84
rfoot 36.4374 10.505
rtoes -3.48626
lfemur -66.9822 14.6075 -7.76829
ltibia 124.026
lfoot 27.2362 -4.9392
ltoes 5.60656
513
root 0.207443 1.86592 19.282 -264.976 -8.68736 -529.622
lowerback 42.3762 8.96626 7.51585
upperback 28.2155 2.08115 2.81958
thorax 12.4738 -4.06284 -2.49367
lowerneck 11.4815 12.1769 6.88273
upperneck 11.6214 15.7832 -2.51701
head 2.68684 7.58552 -2.05752
rclavicle -2.38542e-014 3.18055e-015
rhumerus 17.8215 -9.03126 -66.4717
rradius 30.8851
rwrist 13.1561
rhand -2.81949 10.3168
rfingers 7.12502
rthumb 22.8872 -18.3449
lclavicle -2.38542e-014 3.18055e-015
lhumerus 21.315 -15.2188 71.8531
lradius 36.7878
lwrist -10.986
lhand -35.023 -377.249
lfingers 7.12502
lthumb -8.16697 12.5729
rfemur -52.4868 -17.1719 0.435674
rtibia 105.738
rfoot 36.4936 10.0449
rtoes -3.65093
lfemur -66.5351 14.3084 -7.57039
ltibia 123.865
lfoot 27.2206 -4.86838
ltoes 5.44861
514
root 0.205028 1.86012 19.3013 -265.378 -8.54673 -529.429
lowerback 42.0164 8.96767 7.42688
upperback 28.1605 2.17369 2.83049
thorax 12.4937 -3.97582 -2.45142
lowerneck 11.7427 11.9843 7.0619
upperneck 11.6553 15.5297 -2.4658
head 2.65213 7.45726 -2.08873
rclavicle 1.70831e-017 -1.04958e-013
rhumerus 17.7464 -9.1087 -66.7664
rradius 30.6044
rwrist 13.5057
rhand -2.50813 10.283
rfingers 7.12502
rthumb 23.186 -18.3415
lclavicle 1.70831e-017 -1.04958e-013
lhumerus 20.8216 -14.9153 72.5279
lradius 36.6446
lwrist -11.2841
lhand -35.0425 -377.277
lfingers 7.12502
lthumb -8.18579 12.5449
rfemur -51.5549 -16.8622 0.706406
rtibia 104.594
rfoot 36.5166 9.62054
rtoes -3.83653
lfemur -66.0819 14.001 -7.34866
ltibia 123.71
lfoot 27.1846 -4.77168
ltoes 5.25315
515
root 0.203373 1.85515 19.3223 -265.808 -8.38759 -529.235
lowerback 41.678 8.96748 7.36547
upperback 28.1047 2.27106 2.83652
thorax 12.5118 -3.88372 -2.42904
lowerneck 11.9709 11.785 7.24707
upperneck 11.741 15.2607 -2.36276
head 2.63526 7.32044 -2.10027
rclavicle -5.51627e-015 2.8625e-014
rhumerus 17.6046 -9.21797 -67.0722
rradius 30.3235
rwrist 13.919
rhand -2.19179 10.2358
rfingers 7.12502
rthumb 23.4894 -18.3502
lclavicle -5.51627e-015 2.8625e-014
lhumerus 20.348 -14.6017 73.1927
lradius 36.4455
lwrist -11.6845
lhand -34.9989 -377.304
lfingers 7.12502
lthumb -8.14372 12.5189
rfemur -50.5697 -16.548 0.986772
rtibia 103.408
rfoot 36.5065 9.1264
rtoes -3.99451
lfemur -65.5789 13.6849 -7.10041
ltibia 123.539
lfoot 27.1474 -4.72731
ltoes 5.01766
516
root 0.201337 1.84956 19.3423 -266.233 -8.2619 -529.054
lowerback 41.3228 8.97137 7.28463
upperback 28.0578 2.36594 2.81019
thorax 12.5463 -3.79096 -2.43251
lowerneck 12.1546 11.577 7.43229
upperneck 11.8607 14.9724 -2.18084
head 2.62878 7.17394 -2.0823
rclavicle 5.55603e-014 6.99722e-014
rhumerus 17.4223 -9.34291 -67.4123
rradius 30.0648
rwrist 14.3755
rhand -1.83141 10.1558
rfingers 7.12502
rthumb 23.8351 -18.3855
lclavicle 5.55603e-014 6.99722e-014
lhumerus 19.8736 -14.2977 73.7758
lradius 36.2665
lwrist -12.133
lhand -34.9437 -377.284
lfingers 7.12502
lthumb -8.09045 12.5416
rfemur -49.5993 -16.2675 1.22868
rtibia 102.198
rfoot 36.4963 8.70348
rtoes -4.32083
lfemur -65.0759 13.3618 -6.90333
ltibia 123.364
lfoot 27.1219 -4.6787
ltoes 4.75797
517
root 0.199185 1.84391 19.3628 -266.671 -8.10731 -528.856
lowerback 40.99 8.95252 7.24513
upperback 27.9854 2.45776 2.78399
thorax 12.548 -3.68934 -2.45174
lowerneck 12.4255 11.3513 7.57405
upperneck 11.913 14.6605 -1.97125
head 2.57685 7.0138 -2.05562
rclavicle 2.64384e-014 5.40694e-014
rhumerus 17.131 -9.38192 -67.6564
rradius 29.8441
rwrist 14.761
rhand -1.44932 10.0034
rfingers 7.12502
rthumb 24.2015 -18.4896
lclavicle 2.64384e-014 5.40694e-014
lhumerus 19.3487 -14.0137 74.3556
lradius 36.1136
lwrist -12.5765
lhand -34.872 -377.255
lfingers 7.12502
lthumb -8.02119 12.573
rfemur -48.5825 -16.0074 1.49849
rtibia 100.948
rfoot 36.446 8.31998
rtoes -4.64726
lfemur -64.58 13.027 -6.6729
ltibia 123.195
lfoot 27.0945 -4.60185
ltoes 4.59823
518
root 0.197291 1.83765 19.3846 -267.116 -7.96383 -528.676
lowerback 40.6682 8.94187 7.17393
upperback 27.9199 2.54161 2.74857
thorax 12.5528 -3.59983 -2.46403
lowerneck 12.6234 11.1306 7.69761
upperneck 12.0341 14.3445 -1.73435
head 2.55697 6.84978 -2.01
rclavicle 1.31198e-014 -6.04305e-014
rhumerus 16.8263 -9.32297 -67.8622
rradius 29.6326
rwrist 15.0949
rhand -1.12378 9.80339
rfingers 7.12502
rthumb 24.5136 -18.6476
lclavicle 1.31198e-014 -6.04305e-014
lhumerus 18.8468 -13.6761 74.9134
lradius 35.9273
lwrist -13.0885
lhand -34.804 -377.243
lfingers 7.12502
lthumb -7.9556 12.5872
rfemur -47.5488 -15.733 1.74901
rtibia 99.6623
rfoot 36.3961 7.8319
rtoes -4.83111
lfemur -64.0543 12.6767 -6.46285
ltibia 123.005
lfoot 27.0695 -4.54184
ltoes 4.40905
